<?xml version="1.0" encoding="utf-8"?>
<!-- Generator: Adobe Illustrator 23.0.2, SVG Export Plug-In . SVG Version: 6.00 Build 0)  -->
<svg version="1.1" id="Layer_1" focusable="false" xmlns="http://www.w3.org/2000/svg" xmlns:xlink="http://www.w3.org/1999/xlink"
	 x="0px" y="0px" viewBox="0 0 90.7 90.7" style="enable-background:new 0 0 90.7 90.7;" xml:space="preserve">
<path d="M45.4,0c-9.8,0-17.8,20.3-17.8,45.4s8,45.4,17.8,45.4s17.8-20.3,17.8-45.4S55.2,0,45.4,0z M45.4,88
	c-8.4,0-15.2-19.1-15.2-42.7S36.9,2.7,45.4,2.7c8.4,0,15.2,19.1,15.2,42.7S53.8,88,45.4,88z"/>
<path d="M84.2,21.9c-5.1-8.4-26.6-4.7-48,8.2S1.5,60.4,6.5,68.8s26.6,4.7,48-8.2S89.3,30.3,84.2,21.9z M8.8,67.5
	c-4.4-7.2,8.5-22.9,28.6-35.1s40.1-16.3,44.4-9.1c4.4,7.2-8.5,22.9-28.6,35.1S13.2,74.7,8.8,67.5z"/>
<path d="M36.1,60.6c21.4,13,42.9,16.7,48,8.2c5.1-8.4-8.2-25.8-29.6-38.7s-42.9-16.7-48-8.2S14.7,47.6,36.1,60.6z M37.5,58.4
	C17.3,46.2,4.5,30.5,8.8,23.3c4.4-7.2,24.2-3.2,44.4,9.1s33,27.9,28.6,35.1C77.5,74.7,57.6,70.6,37.5,58.4z"/>
<g>
	<rect x="42.8" y="29.7" transform="matrix(2.034080e-10 -1 1 2.034080e-10 6.5983 84.1104)" width="5" height="18"/>
	<rect x="42.8" y="36.3" transform="matrix(2.034080e-10 -1 1 2.034080e-10 -2.972625e-06 90.7087)" width="5" height="18"/>
	<rect x="42.8" y="42.9" transform="matrix(2.034080e-10 -1 1 2.034080e-10 -6.5983 97.307)" width="5" height="18"/>
</g>
</svg>
