<?xml version="1.0" encoding="iso-8859-1"?>
<!-- Generator: Adobe Illustrator 19.0.0, SVG Export Plug-In . SVG Version: 6.00 Build 0)  -->
<svg version="1.1" id="Layer_1" xmlns="http://www.w3.org/2000/svg" xmlns:xlink="http://www.w3.org/1999/xlink" x="0px" y="0px"
	 viewBox="0 0 512 512" style="enable-background:new 0 0 512 512;" xml:space="preserve">
<g>
	<g>
		<path d="M505.025,19.549c-14.688-14.686-44.146-6.307-92.708,26.377c-41.254,27.766-90.738,69.819-139.336,118.417
			c-72.047,72.046-126.823,142.784-145.061,186.458c-3.002-1.088-6.115-1.958-9.327-2.593c-18.872-3.733-39.369,1.04-56.238,13.086
			c-24.207,17.286-30.618,41.971-31.549,46.132c-5.096,19.032-14.747,37.191-27.921,52.529c-4.237,4.933-3.753,12.349,1.09,16.691
			c16.927,15.17,38.58,22.779,61.102,22.779c21.706,0,44.22-7.069,64.077-21.249c9.311-6.649,16.36-14.001,17.725-15.456
			c16.872-18.131,24.036-41.904,20.482-63.625c42.85-15.361,117.553-72.181,192.871-147.499
			c48.598-48.598,90.652-98.083,118.417-139.336C511.332,63.696,519.713,34.238,505.025,19.549z M129.392,446.415
			c-0.642,0.685-6.495,6.852-14.13,12.302c-27.732,19.8-61.684,22.09-86.345,6.845c11.549-15.834,20.132-33.683,25.063-52.254
			v-0.001c0.055-0.208,0.105-0.418,0.149-0.63c0.041-0.189,4.193-19.127,22.119-31.927c11.53-8.235,25.277-11.547,37.711-9.089
			c10.255,2.026,18.876,7.88,24.275,16.48C148.829,405.018,145.104,429.532,129.392,446.415z M159.217,376.663
			c-0.245-0.41-3.87-7.77-10.624-13.24c5.819-15.557,18.346-36.584,35.806-60.729l37.455,37.455
			C195.505,359.116,173.914,371.48,159.217,376.663z M241.198,325.685l-42.301-42.301c7.31-9.41,15.219-19.157,23.648-29.127
			l47.806,47.806C260.233,310.608,250.489,318.493,241.198,325.685z M455.159,104.266c-26.926,38.916-66.643,85.235-111.832,130.422
			c-18.973,18.973-37.367,36.232-54.844,51.694l-50.257-50.257c15.94-18.032,33.32-36.538,51.661-54.877
			c45.188-45.189,91.507-84.905,130.422-111.834c47.916-33.155,64.45-33.208,67.626-32.774
			C488.371,39.813,488.313,56.353,455.159,104.266z"/>
	</g>
</g>
<g>
	<g>
		<path d="M119.256,414.119c-5.783-3.183-13.052-1.076-16.236,4.708c-0.322,0.585-0.711,1.132-1.158,1.626
			c-0.894,0.93-3.832,3.77-6.884,5.951c-4.63,3.305-9.626,5.674-14.85,7.041c-6.387,1.671-10.209,8.203-8.538,14.59
			c1.406,5.372,6.25,8.93,11.555,8.93c1.002,0,2.019-0.127,3.034-0.391c8.049-2.106,15.684-5.71,22.693-10.714
			c4.499-3.213,10.471-9.095,10.512-9.14c1.777-1.927,3.319-4.069,4.583-6.366C127.149,424.57,125.04,417.301,119.256,414.119z"/>
	</g>
</g>
<g>
</g>
<g>
</g>
<g>
</g>
<g>
</g>
<g>
</g>
<g>
</g>
<g>
</g>
<g>
</g>
<g>
</g>
<g>
</g>
<g>
</g>
<g>
</g>
<g>
</g>
<g>
</g>
<g>
</g>
</svg>
