<?xml version="1.0" encoding="utf-8"?>
<!-- Generator: Adobe Illustrator 23.0.2, SVG Export Plug-In . SVG Version: 6.00 Build 0)  -->
<svg version="1.1" id="Layer_1" focusable="false" xmlns="http://www.w3.org/2000/svg" xmlns:xlink="http://www.w3.org/1999/xlink"
	 x="0px" y="0px" viewBox="0 0 90.7 90.7" style="enable-background:new 0 0 90.7 90.7;" xml:space="preserve">
<path d="M69.4,24.1c-4.7,0-9.1,1.6-12.7,4.2l-0.2,4.6l4.4,0.2c2.4-1.6,5.3-2.6,8.4-2.6c8.2,0,14.9,6.7,14.9,14.9
	s-6.7,14.9-14.9,14.9c-4.4,0-8.4-1.9-11.2-5c-0.1-0.2-0.3-0.3-0.4-0.5c0,0,0,0,0,0l-8.3-9.4l8.6-9.7l-4.3-0.2l0.2-4.7
	c-0.1,0.1-0.1,0.1-0.2,0.2l0,0l-8.5,9.6l-7.9-9c-0.1-0.1-0.2-0.2-0.2-0.3l-0.3-0.3l0,0c-3.9-4.2-9.4-6.9-15.6-6.9
	C9.5,24.1,0,33.6,0,45.4s9.5,21.3,21.3,21.3c4.9,0,9.4-1.7,13-4.5l0.2-4.6L30,57.4c-2.5,1.8-5.5,2.8-8.7,2.8
	c-8.2,0-14.9-6.7-14.9-14.9S13,30.4,21.3,30.4c4.7,0,8.8,2.2,11.6,5.5l8.3,9.4l-8.3,9.5l4.4,0.2l-0.2,4.6c0,0,0,0,0,0l0,0l8.3-9.4
	l8.4,9.5l0,0c3.9,4.3,9.5,6.9,15.7,6.9c11.7,0,21.3-9.5,21.3-21.3S81.2,24.1,69.4,24.1z"/>
</svg>
